<svg xmlns="http://www.w3.org/2000/svg" viewBox="0 0 1200 700" width="1200" height="700">
      <defs>
        <linearGradient id="bg" x1="0" y1="0" x2="1" y2="1">
          <stop offset="0%" stop-color="#18212f"/>
          <stop offset="52%" stop-color="#203347"/>
          <stop offset="100%" stop-color="#0f172a"/>
        </linearGradient>
        <linearGradient id="fade" x1="0" y1="1" x2="1" y2="0">
          <stop offset="0%" stop-color="rgba(7,12,20,.85)"/>
          <stop offset="100%" stop-color="rgba(7,12,20,.15)"/>
        </linearGradient>
        <filter id="soft"><feGaussianBlur stdDeviation="18"/></filter>
      </defs>
      <rect width="1200" height="700" fill="url(#bg)"/>
      <g opacity="0.55"><rect x="412" y="345" width="106" height="122" rx="12" transform="rotate(9 465.0 406.0)" fill="#335c4a" opacity="0.55" stroke="rgba(255,255,255,.08)"/><rect x="925" y="51" width="122" height="117" rx="12" transform="rotate(13 986.0 109.5)" fill="#2f4f62" opacity="0.55" stroke="rgba(255,255,255,.08)"/><rect x="416" y="444" width="179" height="174" rx="12" transform="rotate(-8 505.5 531.0)" fill="#3f5d46" opacity="0.55" stroke="rgba(255,255,255,.08)"/><rect x="446" y="325" width="172" height="82" rx="12" transform="rotate(-14 532.0 366.0)" fill="#5a6b35" opacity="0.55" stroke="rgba(255,255,255,.08)"/><rect x="745" y="235" width="218" height="96" rx="12" transform="rotate(-6 854.0 283.0)" fill="#3f4e66" opacity="0.55" stroke="rgba(255,255,255,.08)"/><rect x="129" y="444" width="121" height="102" rx="12" transform="rotate(10 189.5 495.0)" fill="#335c4a" opacity="0.55" stroke="rgba(255,255,255,.08)"/><rect x="631" y="233" width="122" height="105" rx="12" transform="rotate(1 692.0 285.5)" fill="#2f4f62" opacity="0.55" stroke="rgba(255,255,255,.08)"/><rect x="116" y="97" width="172" height="106" rx="12" transform="rotate(-6 202.0 150.0)" fill="#3f5d46" opacity="0.55" stroke="rgba(255,255,255,.08)"/><rect x="143" y="348" width="161" height="106" rx="12" transform="rotate(-12 223.5 401.0)" fill="#5a6b35" opacity="0.55" stroke="rgba(255,255,255,.08)"/><rect x="441" y="94" width="205" height="165" rx="12" transform="rotate(11 543.5 176.5)" fill="#3f4e66" opacity="0.55" stroke="rgba(255,255,255,.08)"/><rect x="875" y="506" width="107" height="134" rx="12" transform="rotate(-8 928.5 573.0)" fill="#335c4a" opacity="0.55" stroke="rgba(255,255,255,.08)"/><rect x="851" y="112" width="192" height="58" rx="12" transform="rotate(8 947.0 141.0)" fill="#2f4f62" opacity="0.55" stroke="rgba(255,255,255,.08)"/><rect x="74" y="169" width="199" height="129" rx="12" transform="rotate(13 173.5 233.5)" fill="#3f5d46" opacity="0.55" stroke="rgba(255,255,255,.08)"/><rect x="495" y="452" width="167" height="115" rx="12" transform="rotate(13 578.5 509.5)" fill="#5a6b35" opacity="0.55" stroke="rgba(255,255,255,.08)"/><rect x="465" y="278" width="201" height="107" rx="12" transform="rotate(-3 565.5 331.5)" fill="#3f4e66" opacity="0.55" stroke="rgba(255,255,255,.08)"/><rect x="734" y="161" width="97" height="163" rx="12" transform="rotate(0 782.5 242.5)" fill="#335c4a" opacity="0.55" stroke="rgba(255,255,255,.08)"/><rect x="103" y="72" width="180" height="70" rx="12" transform="rotate(13 193.0 107.0)" fill="#2f4f62" opacity="0.55" stroke="rgba(255,255,255,.08)"/><rect x="597" y="282" width="101" height="83" rx="12" transform="rotate(-11 647.5 323.5)" fill="#3f5d46" opacity="0.55" stroke="rgba(255,255,255,.08)"/></g>
      <g><path d="M -40 79 C 179 29, 859 134, 1240 69" fill="none" stroke="rgba(244,246,248,.75)" stroke-width="20" stroke-linecap="round"/><path d="M -40 165 C 163 115, 878 220, 1240 155" fill="none" stroke="rgba(244,246,248,.75)" stroke-width="12" stroke-linecap="round"/><path d="M -40 257 C 315 207, 847 312, 1240 247" fill="none" stroke="rgba(244,246,248,.75)" stroke-width="20" stroke-linecap="round"/><path d="M -40 328 C 150 278, 691 383, 1240 318" fill="none" stroke="rgba(244,246,248,.75)" stroke-width="12" stroke-linecap="round"/><path d="M -40 400 C 127 350, 762 455, 1240 390" fill="none" stroke="rgba(244,246,248,.75)" stroke-width="20" stroke-linecap="round"/></g>
      <ellipse cx="522" cy="269" rx="230" ry="120" fill="#06b6d4" opacity="0.18" filter="url(#soft)"/>
      <g transform="rotate(-7 522 254)"><rect x="402" y="184" width="240" height="140" rx="12" fill="#2b7a78" stroke="rgba(255,255,255,.85)" stroke-width="4"/><rect x="420" y="198" width="204" height="112" rx="8" fill="none" stroke="rgba(255,255,255,.75)" stroke-width="2.4"/><line x1="522" y1="198" x2="522" y2="310" stroke="rgba(255,255,255,.8)" stroke-width="2.2"/><line x1="420" y1="254" x2="624" y2="254" stroke="rgba(255,255,255,.8)" stroke-width="2.2"/><line x1="420" y1="246" x2="624" y2="246" stroke="rgba(255,255,255,.45)" stroke-width="1"/></g>
      <g transform="translate(512 214)">
      <path d="M0 0 C 18 -32, 64 -26, 64 10 C64 44, 32 68, 32 68 C32 68, 0 44, 0 10 C0 -4, 8 -15, 0 0Z" fill="#06b6d4" stroke="rgba(255,255,255,.85)" stroke-width="3"/>
      <circle cx="32" cy="14" r="12" fill="white" opacity="0.95"/>
      <circle cx="32" cy="14" r="5" fill="#164e63"/>
    </g>
      <rect x="0" y="0" width="1200" height="700" fill="url(#fade)"/>
      <g font-family="Inter, Arial, sans-serif">
        <text x="52" y="74" font-size="22" font-weight="700" fill="rgba(255,255,255,.72)">Repérage visuel provisoire</text>
        <text x="52" y="124" font-size="46" font-weight="800" fill="white">Chambésy</text>
        <text x="52" y="164" font-size="24" fill="rgba(255,255,255,.82)">Chambésy, Genève</text>
        <rect x="52" y="560" width="300" height="84" rx="20" fill="rgba(10,15,23,.72)" stroke="rgba(255,255,255,.12)"/>
        <text x="78" y="595" font-size="18" fill="rgba(255,255,255,.62)">Coordonnées approx.</text>
        <text x="78" y="624" font-size="26" font-weight="700" fill="white">46.2434402, 6.1465109</text>
        <rect x="915" y="54" width="230" height="52" rx="26" fill="rgba(255,255,255,.08)" stroke="rgba(255,255,255,.18)"/>
        <text x="1030" y="87" text-anchor="middle" font-size="18" font-weight="700" fill="white">Vue type maps</text>
      </g>
    </svg>