<svg xmlns="http://www.w3.org/2000/svg" viewBox="0 0 1200 700" width="1200" height="700">
      <defs>
        <linearGradient id="bg" x1="0" y1="0" x2="1" y2="1">
          <stop offset="0%" stop-color="#18212f"/>
          <stop offset="52%" stop-color="#203347"/>
          <stop offset="100%" stop-color="#0f172a"/>
        </linearGradient>
        <linearGradient id="fade" x1="0" y1="1" x2="1" y2="0">
          <stop offset="0%" stop-color="rgba(7,12,20,.85)"/>
          <stop offset="100%" stop-color="rgba(7,12,20,.15)"/>
        </linearGradient>
        <filter id="soft"><feGaussianBlur stdDeviation="18"/></filter>
      </defs>
      <rect width="1200" height="700" fill="url(#bg)"/>
      <g opacity="0.55"><rect x="641" y="343" width="257" height="90" rx="12" transform="rotate(-13 769.5 388.0)" fill="#335c4a" opacity="0.55" stroke="rgba(255,255,255,.08)"/><rect x="1039" y="335" width="197" height="101" rx="12" transform="rotate(-12 1137.5 385.5)" fill="#2f4f62" opacity="0.55" stroke="rgba(255,255,255,.08)"/><rect x="473" y="301" width="132" height="166" rx="12" transform="rotate(9 539.0 384.0)" fill="#3f5d46" opacity="0.55" stroke="rgba(255,255,255,.08)"/><rect x="999" y="538" width="149" height="138" rx="12" transform="rotate(8 1073.5 607.0)" fill="#5a6b35" opacity="0.55" stroke="rgba(255,255,255,.08)"/><rect x="497" y="341" width="207" height="124" rx="12" transform="rotate(5 600.5 403.0)" fill="#3f4e66" opacity="0.55" stroke="rgba(255,255,255,.08)"/><rect x="1055" y="212" width="115" height="116" rx="12" transform="rotate(-13 1112.5 270.0)" fill="#335c4a" opacity="0.55" stroke="rgba(255,255,255,.08)"/><rect x="569" y="117" width="119" height="172" rx="12" transform="rotate(-10 628.5 203.0)" fill="#2f4f62" opacity="0.55" stroke="rgba(255,255,255,.08)"/><rect x="610" y="324" width="255" height="139" rx="12" transform="rotate(3 737.5 393.5)" fill="#3f5d46" opacity="0.55" stroke="rgba(255,255,255,.08)"/><rect x="915" y="133" width="203" height="122" rx="12" transform="rotate(-7 1016.5 194.0)" fill="#5a6b35" opacity="0.55" stroke="rgba(255,255,255,.08)"/><rect x="827" y="556" width="141" height="113" rx="12" transform="rotate(13 897.5 612.5)" fill="#3f4e66" opacity="0.55" stroke="rgba(255,255,255,.08)"/><rect x="543" y="167" width="245" height="108" rx="12" transform="rotate(7 665.5 221.0)" fill="#335c4a" opacity="0.55" stroke="rgba(255,255,255,.08)"/><rect x="685" y="227" width="176" height="165" rx="12" transform="rotate(-13 773.0 309.5)" fill="#2f4f62" opacity="0.55" stroke="rgba(255,255,255,.08)"/><rect x="1041" y="512" width="191" height="94" rx="12" transform="rotate(-11 1136.5 559.0)" fill="#3f5d46" opacity="0.55" stroke="rgba(255,255,255,.08)"/><rect x="978" y="339" width="163" height="97" rx="12" transform="rotate(1 1059.5 387.5)" fill="#5a6b35" opacity="0.55" stroke="rgba(255,255,255,.08)"/><rect x="181" y="507" width="199" height="158" rx="12" transform="rotate(5 280.5 586.0)" fill="#3f4e66" opacity="0.55" stroke="rgba(255,255,255,.08)"/><rect x="592" y="275" width="181" height="68" rx="12" transform="rotate(4 682.5 309.0)" fill="#335c4a" opacity="0.55" stroke="rgba(255,255,255,.08)"/><rect x="557" y="129" width="137" height="143" rx="12" transform="rotate(1 625.5 200.5)" fill="#2f4f62" opacity="0.55" stroke="rgba(255,255,255,.08)"/><rect x="824" y="595" width="164" height="60" rx="12" transform="rotate(-3 906.0 625.0)" fill="#3f5d46" opacity="0.55" stroke="rgba(255,255,255,.08)"/></g>
      <g><path d="M -40 84 C 131 34, 875 139, 1240 74" fill="none" stroke="rgba(244,246,248,.75)" stroke-width="20" stroke-linecap="round"/><path d="M -40 167 C 139 117, 786 222, 1240 157" fill="none" stroke="rgba(244,246,248,.75)" stroke-width="12" stroke-linecap="round"/><path d="M -40 258 C 203 208, 701 313, 1240 248" fill="none" stroke="rgba(244,246,248,.75)" stroke-width="20" stroke-linecap="round"/><path d="M -40 328 C 294 278, 718 383, 1240 318" fill="none" stroke="rgba(244,246,248,.75)" stroke-width="12" stroke-linecap="round"/><path d="M -40 413 C 199 363, 767 468, 1240 403" fill="none" stroke="rgba(244,246,248,.75)" stroke-width="20" stroke-linecap="round"/></g>
      <ellipse cx="624" cy="320" rx="230" ry="120" fill="#22c55e" opacity="0.18" filter="url(#soft)"/>
      <g transform="rotate(2 624 305)"><rect x="504" y="235" width="240" height="140" rx="12" fill="#2b7a78" stroke="rgba(255,255,255,.85)" stroke-width="4"/><rect x="522" y="249" width="204" height="112" rx="8" fill="none" stroke="rgba(255,255,255,.75)" stroke-width="2.4"/><line x1="624" y1="249" x2="624" y2="361" stroke="rgba(255,255,255,.8)" stroke-width="2.2"/><line x1="522" y1="305" x2="726" y2="305" stroke="rgba(255,255,255,.8)" stroke-width="2.2"/><line x1="522" y1="297" x2="726" y2="297" stroke="rgba(255,255,255,.45)" stroke-width="1"/></g>
      <g transform="translate(614 265)">
      <path d="M0 0 C 18 -32, 64 -26, 64 10 C64 44, 32 68, 32 68 C32 68, 0 44, 0 10 C0 -4, 8 -15, 0 0Z" fill="#22c55e" stroke="rgba(255,255,255,.85)" stroke-width="3"/>
      <circle cx="32" cy="14" r="12" fill="white" opacity="0.95"/>
      <circle cx="32" cy="14" r="5" fill="#166534"/>
    </g>
      <rect x="0" y="0" width="1200" height="700" fill="url(#fade)"/>
      <g font-family="Inter, Arial, sans-serif">
        <text x="52" y="74" font-size="22" font-weight="700" fill="rgba(255,255,255,.72)">Repérage visuel provisoire</text>
        <text x="52" y="124" font-size="46" font-weight="800" fill="white">Les Évaux</text>
        <text x="52" y="164" font-size="24" fill="rgba(255,255,255,.82)">Chemin François-Chavaz 110, 1213 Onex</text>
        <rect x="52" y="560" width="300" height="84" rx="20" fill="rgba(10,15,23,.72)" stroke="rgba(255,255,255,.12)"/>
        <text x="78" y="595" font-size="18" fill="rgba(255,255,255,.62)">Coordonnées approx.</text>
        <text x="78" y="624" font-size="26" font-weight="700" fill="white">46.1887650, 6.0917993</text>
        <rect x="915" y="54" width="230" height="52" rx="26" fill="rgba(255,255,255,.08)" stroke="rgba(255,255,255,.18)"/>
        <text x="1030" y="87" text-anchor="middle" font-size="18" font-weight="700" fill="white">Vue type maps</text>
      </g>
    </svg>