<svg xmlns="http://www.w3.org/2000/svg" viewBox="0 0 1200 700" width="1200" height="700">
      <defs>
        <linearGradient id="bg" x1="0" y1="0" x2="1" y2="1">
          <stop offset="0%" stop-color="#18212f"/>
          <stop offset="52%" stop-color="#203347"/>
          <stop offset="100%" stop-color="#0f172a"/>
        </linearGradient>
        <linearGradient id="fade" x1="0" y1="1" x2="1" y2="0">
          <stop offset="0%" stop-color="rgba(7,12,20,.85)"/>
          <stop offset="100%" stop-color="rgba(7,12,20,.15)"/>
        </linearGradient>
        <filter id="soft"><feGaussianBlur stdDeviation="18"/></filter>
      </defs>
      <rect width="1200" height="700" fill="url(#bg)"/>
      <g opacity="0.55"><rect x="279" y="312" width="158" height="77" rx="12" transform="rotate(-7 358.0 350.5)" fill="#335c4a" opacity="0.55" stroke="rgba(255,255,255,.08)"/><rect x="333" y="605" width="148" height="95" rx="12" transform="rotate(5 407.0 652.5)" fill="#2f4f62" opacity="0.55" stroke="rgba(255,255,255,.08)"/><rect x="120" y="436" width="107" height="163" rx="12" transform="rotate(-10 173.5 517.5)" fill="#3f5d46" opacity="0.55" stroke="rgba(255,255,255,.08)"/><rect x="298" y="321" width="136" height="137" rx="12" transform="rotate(13 366.0 389.5)" fill="#5a6b35" opacity="0.55" stroke="rgba(255,255,255,.08)"/><rect x="146" y="233" width="115" height="63" rx="12" transform="rotate(-6 203.5 264.5)" fill="#3f4e66" opacity="0.55" stroke="rgba(255,255,255,.08)"/><rect x="880" y="158" width="239" height="86" rx="12" transform="rotate(10 999.5 201.0)" fill="#335c4a" opacity="0.55" stroke="rgba(255,255,255,.08)"/><rect x="1006" y="375" width="96" height="97" rx="12" transform="rotate(1 1054.0 423.5)" fill="#2f4f62" opacity="0.55" stroke="rgba(255,255,255,.08)"/><rect x="304" y="453" width="244" height="162" rx="12" transform="rotate(8 426.0 534.0)" fill="#3f5d46" opacity="0.55" stroke="rgba(255,255,255,.08)"/><rect x="762" y="504" width="112" height="74" rx="12" transform="rotate(9 818.0 541.0)" fill="#5a6b35" opacity="0.55" stroke="rgba(255,255,255,.08)"/><rect x="226" y="457" width="96" height="149" rx="12" transform="rotate(7 274.0 531.5)" fill="#3f4e66" opacity="0.55" stroke="rgba(255,255,255,.08)"/><rect x="242" y="118" width="222" height="126" rx="12" transform="rotate(4 353.0 181.0)" fill="#335c4a" opacity="0.55" stroke="rgba(255,255,255,.08)"/><rect x="535" y="488" width="250" height="174" rx="12" transform="rotate(-14 660.0 575.0)" fill="#2f4f62" opacity="0.55" stroke="rgba(255,255,255,.08)"/><rect x="966" y="357" width="228" height="135" rx="12" transform="rotate(2 1080.0 424.5)" fill="#3f5d46" opacity="0.55" stroke="rgba(255,255,255,.08)"/><rect x="941" y="546" width="182" height="58" rx="12" transform="rotate(8 1032.0 575.0)" fill="#5a6b35" opacity="0.55" stroke="rgba(255,255,255,.08)"/><rect x="163" y="325" width="208" height="139" rx="12" transform="rotate(8 267.0 394.5)" fill="#3f4e66" opacity="0.55" stroke="rgba(255,255,255,.08)"/><rect x="58" y="469" width="101" height="59" rx="12" transform="rotate(6 108.5 498.5)" fill="#335c4a" opacity="0.55" stroke="rgba(255,255,255,.08)"/><rect x="815" y="226" width="182" height="138" rx="12" transform="rotate(2 906.0 295.0)" fill="#2f4f62" opacity="0.55" stroke="rgba(255,255,255,.08)"/><rect x="953" y="74" width="187" height="117" rx="12" transform="rotate(12 1046.5 132.5)" fill="#3f5d46" opacity="0.55" stroke="rgba(255,255,255,.08)"/></g>
      <g><path d="M -40 90 C 280 40, 707 145, 1240 80" fill="none" stroke="rgba(244,246,248,.75)" stroke-width="20" stroke-linecap="round"/><path d="M -40 158 C 314 108, 702 213, 1240 148" fill="none" stroke="rgba(244,246,248,.75)" stroke-width="12" stroke-linecap="round"/><path d="M -40 254 C 190 204, 759 309, 1240 244" fill="none" stroke="rgba(244,246,248,.75)" stroke-width="20" stroke-linecap="round"/><path d="M -40 339 C 288 289, 847 394, 1240 329" fill="none" stroke="rgba(244,246,248,.75)" stroke-width="12" stroke-linecap="round"/><path d="M -40 418 C 196 368, 848 473, 1240 408" fill="none" stroke="rgba(244,246,248,.75)" stroke-width="20" stroke-linecap="round"/></g>
      <ellipse cx="585" cy="301" rx="230" ry="120" fill="#f97316" opacity="0.18" filter="url(#soft)"/>
      <g transform="rotate(-9 585 286)"><rect x="465" y="216" width="240" height="140" rx="12" fill="#2b7a78" stroke="rgba(255,255,255,.85)" stroke-width="4"/><rect x="483" y="230" width="204" height="112" rx="8" fill="none" stroke="rgba(255,255,255,.75)" stroke-width="2.4"/><line x1="585" y1="230" x2="585" y2="342" stroke="rgba(255,255,255,.8)" stroke-width="2.2"/><line x1="483" y1="286" x2="687" y2="286" stroke="rgba(255,255,255,.8)" stroke-width="2.2"/><line x1="483" y1="278" x2="687" y2="278" stroke="rgba(255,255,255,.45)" stroke-width="1"/></g>
      <g transform="translate(575 246)">
      <path d="M0 0 C 18 -32, 64 -26, 64 10 C64 44, 32 68, 32 68 C32 68, 0 44, 0 10 C0 -4, 8 -15, 0 0Z" fill="#f97316" stroke="rgba(255,255,255,.85)" stroke-width="3"/>
      <circle cx="32" cy="14" r="12" fill="white" opacity="0.95"/>
      <circle cx="32" cy="14" r="5" fill="#7c2d12"/>
    </g>
      <rect x="0" y="0" width="1200" height="700" fill="url(#fade)"/>
      <g font-family="Inter, Arial, sans-serif">
        <text x="52" y="74" font-size="22" font-weight="700" fill="rgba(255,255,255,.72)">Repérage visuel provisoire</text>
        <text x="52" y="124" font-size="46" font-weight="800" fill="white">La Jonction</text>
        <text x="52" y="164" font-size="24" fill="rgba(255,255,255,.82)">La Jonction, Genève</text>
        <rect x="52" y="560" width="300" height="84" rx="20" fill="rgba(10,15,23,.72)" stroke="rgba(255,255,255,.12)"/>
        <text x="78" y="595" font-size="18" fill="rgba(255,255,255,.62)">Coordonnées approx.</text>
        <text x="78" y="624" font-size="26" font-weight="700" fill="white">46.2016277, 6.1270552</text>
        <rect x="915" y="54" width="230" height="52" rx="26" fill="rgba(255,255,255,.08)" stroke="rgba(255,255,255,.18)"/>
        <text x="1030" y="87" text-anchor="middle" font-size="18" font-weight="700" fill="white">Vue type maps</text>
      </g>
    </svg>