<svg xmlns="http://www.w3.org/2000/svg" viewBox="0 0 1200 700" width="1200" height="700">
      <defs>
        <linearGradient id="bg" x1="0" y1="0" x2="1" y2="1">
          <stop offset="0%" stop-color="#18212f"/>
          <stop offset="52%" stop-color="#203347"/>
          <stop offset="100%" stop-color="#0f172a"/>
        </linearGradient>
        <linearGradient id="fade" x1="0" y1="1" x2="1" y2="0">
          <stop offset="0%" stop-color="rgba(7,12,20,.85)"/>
          <stop offset="100%" stop-color="rgba(7,12,20,.15)"/>
        </linearGradient>
        <filter id="soft"><feGaussianBlur stdDeviation="18"/></filter>
      </defs>
      <rect width="1200" height="700" fill="url(#bg)"/>
      <g opacity="0.55"><rect x="353" y="505" width="122" height="166" rx="12" transform="rotate(-14 414.0 588.0)" fill="#335c4a" opacity="0.55" stroke="rgba(255,255,255,.08)"/><rect x="895" y="131" width="215" height="79" rx="12" transform="rotate(-12 1002.5 170.5)" fill="#2f4f62" opacity="0.55" stroke="rgba(255,255,255,.08)"/><rect x="401" y="199" width="141" height="95" rx="12" transform="rotate(13 471.5 246.5)" fill="#3f5d46" opacity="0.55" stroke="rgba(255,255,255,.08)"/><rect x="438" y="202" width="153" height="163" rx="12" transform="rotate(10 514.5 283.5)" fill="#5a6b35" opacity="0.55" stroke="rgba(255,255,255,.08)"/><rect x="741" y="458" width="209" height="76" rx="12" transform="rotate(-8 845.5 496.0)" fill="#3f4e66" opacity="0.55" stroke="rgba(255,255,255,.08)"/><rect x="127" y="556" width="201" height="92" rx="12" transform="rotate(9 227.5 602.0)" fill="#335c4a" opacity="0.55" stroke="rgba(255,255,255,.08)"/><rect x="105" y="574" width="247" height="160" rx="12" transform="rotate(-13 228.5 654.0)" fill="#2f4f62" opacity="0.55" stroke="rgba(255,255,255,.08)"/><rect x="378" y="268" width="234" height="73" rx="12" transform="rotate(-13 495.0 304.5)" fill="#3f5d46" opacity="0.55" stroke="rgba(255,255,255,.08)"/><rect x="274" y="523" width="107" height="149" rx="12" transform="rotate(13 327.5 597.5)" fill="#5a6b35" opacity="0.55" stroke="rgba(255,255,255,.08)"/><rect x="1032" y="466" width="93" height="127" rx="12" transform="rotate(9 1078.5 529.5)" fill="#3f4e66" opacity="0.55" stroke="rgba(255,255,255,.08)"/><rect x="645" y="122" width="221" height="115" rx="12" transform="rotate(5 755.5 179.5)" fill="#335c4a" opacity="0.55" stroke="rgba(255,255,255,.08)"/><rect x="211" y="205" width="164" height="109" rx="12" transform="rotate(0 293.0 259.5)" fill="#2f4f62" opacity="0.55" stroke="rgba(255,255,255,.08)"/><rect x="279" y="501" width="100" height="154" rx="12" transform="rotate(9 329.0 578.0)" fill="#3f5d46" opacity="0.55" stroke="rgba(255,255,255,.08)"/><rect x="72" y="333" width="118" height="127" rx="12" transform="rotate(-3 131.0 396.5)" fill="#5a6b35" opacity="0.55" stroke="rgba(255,255,255,.08)"/><rect x="778" y="219" width="91" height="113" rx="12" transform="rotate(-11 823.5 275.5)" fill="#3f4e66" opacity="0.55" stroke="rgba(255,255,255,.08)"/><rect x="366" y="131" width="127" height="166" rx="12" transform="rotate(10 429.5 214.0)" fill="#335c4a" opacity="0.55" stroke="rgba(255,255,255,.08)"/><rect x="444" y="57" width="195" height="72" rx="12" transform="rotate(-10 541.5 93.0)" fill="#2f4f62" opacity="0.55" stroke="rgba(255,255,255,.08)"/><rect x="768" y="274" width="108" height="84" rx="12" transform="rotate(6 822.0 316.0)" fill="#3f5d46" opacity="0.55" stroke="rgba(255,255,255,.08)"/></g>
      <g><path d="M -40 89 C 275 39, 822 144, 1240 79" fill="none" stroke="rgba(244,246,248,.75)" stroke-width="20" stroke-linecap="round"/><path d="M -40 182 C 211 132, 760 237, 1240 172" fill="none" stroke="rgba(244,246,248,.75)" stroke-width="12" stroke-linecap="round"/><path d="M -40 253 C 239 203, 788 308, 1240 243" fill="none" stroke="rgba(244,246,248,.75)" stroke-width="20" stroke-linecap="round"/><path d="M -40 326 C 312 276, 862 381, 1240 316" fill="none" stroke="rgba(244,246,248,.75)" stroke-width="12" stroke-linecap="round"/><path d="M -40 412 C 208 362, 747 467, 1240 402" fill="none" stroke="rgba(244,246,248,.75)" stroke-width="20" stroke-linecap="round"/></g>
      <ellipse cx="534" cy="275" rx="230" ry="120" fill="#eab308" opacity="0.18" filter="url(#soft)"/>
      <g transform="rotate(2 534 260)"><rect x="414" y="190" width="240" height="140" rx="12" fill="#2b7a78" stroke="rgba(255,255,255,.85)" stroke-width="4"/><rect x="432" y="204" width="204" height="112" rx="8" fill="none" stroke="rgba(255,255,255,.75)" stroke-width="2.4"/><line x1="534" y1="204" x2="534" y2="316" stroke="rgba(255,255,255,.8)" stroke-width="2.2"/><line x1="432" y1="260" x2="636" y2="260" stroke="rgba(255,255,255,.8)" stroke-width="2.2"/><line x1="432" y1="252" x2="636" y2="252" stroke="rgba(255,255,255,.45)" stroke-width="1"/></g>
      <g transform="translate(524 220)">
      <path d="M0 0 C 18 -32, 64 -26, 64 10 C64 44, 32 68, 32 68 C32 68, 0 44, 0 10 C0 -4, 8 -15, 0 0Z" fill="#eab308" stroke="rgba(255,255,255,.85)" stroke-width="3"/>
      <circle cx="32" cy="14" r="12" fill="white" opacity="0.95"/>
      <circle cx="32" cy="14" r="5" fill="#854d0e"/>
    </g>
      <rect x="0" y="0" width="1200" height="700" fill="url(#fade)"/>
      <g font-family="Inter, Arial, sans-serif">
        <text x="52" y="74" font-size="22" font-weight="700" fill="rgba(255,255,255,.72)">Repérage visuel provisoire</text>
        <text x="52" y="124" font-size="46" font-weight="800" fill="white">Bernex</text>
        <text x="52" y="164" font-size="24" fill="rgba(255,255,255,.82)">Bernex, Genève</text>
        <rect x="52" y="560" width="300" height="84" rx="20" fill="rgba(10,15,23,.72)" stroke="rgba(255,255,255,.12)"/>
        <text x="78" y="595" font-size="18" fill="rgba(255,255,255,.62)">Coordonnées approx.</text>
        <text x="78" y="624" font-size="26" font-weight="700" fill="white">46.1746582, 6.0721811</text>
        <rect x="915" y="54" width="230" height="52" rx="26" fill="rgba(255,255,255,.08)" stroke="rgba(255,255,255,.18)"/>
        <text x="1030" y="87" text-anchor="middle" font-size="18" font-weight="700" fill="white">Vue type maps</text>
      </g>
    </svg>