<svg xmlns="http://www.w3.org/2000/svg" viewBox="0 0 1200 700" width="1200" height="700">
      <defs>
        <linearGradient id="bg" x1="0" y1="0" x2="1" y2="1">
          <stop offset="0%" stop-color="#18212f"/>
          <stop offset="52%" stop-color="#203347"/>
          <stop offset="100%" stop-color="#0f172a"/>
        </linearGradient>
        <linearGradient id="fade" x1="0" y1="1" x2="1" y2="0">
          <stop offset="0%" stop-color="rgba(7,12,20,.85)"/>
          <stop offset="100%" stop-color="rgba(7,12,20,.15)"/>
        </linearGradient>
        <filter id="soft"><feGaussianBlur stdDeviation="18"/></filter>
      </defs>
      <rect width="1200" height="700" fill="url(#bg)"/>
      <g opacity="0.55"><rect x="972" y="178" width="163" height="90" rx="12" transform="rotate(-1 1053.5 223.0)" fill="#335c4a" opacity="0.55" stroke="rgba(255,255,255,.08)"/><rect x="680" y="538" width="150" height="101" rx="12" transform="rotate(-6 755.0 588.5)" fill="#2f4f62" opacity="0.55" stroke="rgba(255,255,255,.08)"/><rect x="293" y="402" width="108" height="106" rx="12" transform="rotate(8 347.0 455.0)" fill="#3f5d46" opacity="0.55" stroke="rgba(255,255,255,.08)"/><rect x="909" y="589" width="222" height="108" rx="12" transform="rotate(8 1020.0 643.0)" fill="#5a6b35" opacity="0.55" stroke="rgba(255,255,255,.08)"/><rect x="977" y="367" width="158" height="169" rx="12" transform="rotate(-9 1056.0 451.5)" fill="#3f4e66" opacity="0.55" stroke="rgba(255,255,255,.08)"/><rect x="245" y="225" width="176" height="79" rx="12" transform="rotate(8 333.0 264.5)" fill="#335c4a" opacity="0.55" stroke="rgba(255,255,255,.08)"/><rect x="689" y="409" width="149" height="153" rx="12" transform="rotate(0 763.5 485.5)" fill="#2f4f62" opacity="0.55" stroke="rgba(255,255,255,.08)"/><rect x="670" y="470" width="185" height="70" rx="12" transform="rotate(-6 762.5 505.0)" fill="#3f5d46" opacity="0.55" stroke="rgba(255,255,255,.08)"/><rect x="945" y="266" width="253" height="88" rx="12" transform="rotate(2 1071.5 310.0)" fill="#5a6b35" opacity="0.55" stroke="rgba(255,255,255,.08)"/><rect x="317" y="338" width="251" height="96" rx="12" transform="rotate(-10 442.5 386.0)" fill="#3f4e66" opacity="0.55" stroke="rgba(255,255,255,.08)"/><rect x="288" y="343" width="215" height="160" rx="12" transform="rotate(-5 395.5 423.0)" fill="#335c4a" opacity="0.55" stroke="rgba(255,255,255,.08)"/><rect x="558" y="600" width="246" height="71" rx="12" transform="rotate(-5 681.0 635.5)" fill="#2f4f62" opacity="0.55" stroke="rgba(255,255,255,.08)"/><rect x="452" y="128" width="141" height="77" rx="12" transform="rotate(-7 522.5 166.5)" fill="#3f5d46" opacity="0.55" stroke="rgba(255,255,255,.08)"/><rect x="159" y="432" width="223" height="149" rx="12" transform="rotate(-11 270.5 506.5)" fill="#5a6b35" opacity="0.55" stroke="rgba(255,255,255,.08)"/><rect x="297" y="268" width="144" height="64" rx="12" transform="rotate(13 369.0 300.0)" fill="#3f4e66" opacity="0.55" stroke="rgba(255,255,255,.08)"/><rect x="125" y="156" width="154" height="81" rx="12" transform="rotate(8 202.0 196.5)" fill="#335c4a" opacity="0.55" stroke="rgba(255,255,255,.08)"/><rect x="849" y="69" width="208" height="149" rx="12" transform="rotate(-11 953.0 143.5)" fill="#2f4f62" opacity="0.55" stroke="rgba(255,255,255,.08)"/><rect x="970" y="565" width="115" height="63" rx="12" transform="rotate(-9 1027.5 596.5)" fill="#3f5d46" opacity="0.55" stroke="rgba(255,255,255,.08)"/></g>
      <g><path d="M -40 82 C 211 32, 841 137, 1240 72" fill="none" stroke="rgba(244,246,248,.75)" stroke-width="20" stroke-linecap="round"/><path d="M -40 179 C 179 129, 769 234, 1240 169" fill="none" stroke="rgba(244,246,248,.75)" stroke-width="12" stroke-linecap="round"/><path d="M -40 239 C 123 189, 793 294, 1240 229" fill="none" stroke="rgba(244,246,248,.75)" stroke-width="20" stroke-linecap="round"/><path d="M -40 331 C 254 281, 864 386, 1240 321" fill="none" stroke="rgba(244,246,248,.75)" stroke-width="12" stroke-linecap="round"/><path d="M -40 414 C 179 364, 790 469, 1240 404" fill="none" stroke="rgba(244,246,248,.75)" stroke-width="20" stroke-linecap="round"/></g>
      <ellipse cx="516" cy="346" rx="230" ry="120" fill="#8b5cf6" opacity="0.18" filter="url(#soft)"/>
      <g transform="rotate(8 516 331)"><rect x="396" y="261" width="240" height="140" rx="12" fill="#2b7a78" stroke="rgba(255,255,255,.85)" stroke-width="4"/><rect x="414" y="275" width="204" height="112" rx="8" fill="none" stroke="rgba(255,255,255,.75)" stroke-width="2.4"/><line x1="516" y1="275" x2="516" y2="387" stroke="rgba(255,255,255,.8)" stroke-width="2.2"/><line x1="414" y1="331" x2="618" y2="331" stroke="rgba(255,255,255,.8)" stroke-width="2.2"/><line x1="414" y1="323" x2="618" y2="323" stroke="rgba(255,255,255,.45)" stroke-width="1"/></g>
      <g transform="translate(506 291)">
      <path d="M0 0 C 18 -32, 64 -26, 64 10 C64 44, 32 68, 32 68 C32 68, 0 44, 0 10 C0 -4, 8 -15, 0 0Z" fill="#8b5cf6" stroke="rgba(255,255,255,.85)" stroke-width="3"/>
      <circle cx="32" cy="14" r="12" fill="white" opacity="0.95"/>
      <circle cx="32" cy="14" r="5" fill="#312e81"/>
    </g>
      <rect x="0" y="0" width="1200" height="700" fill="url(#fade)"/>
      <g font-family="Inter, Arial, sans-serif">
        <text x="52" y="74" font-size="22" font-weight="700" fill="rgba(255,255,255,.72)">Repérage visuel provisoire</text>
        <text x="52" y="124" font-size="46" font-weight="800" fill="white">Champel</text>
        <text x="52" y="164" font-size="24" fill="rgba(255,255,255,.82)">Champel, Genève</text>
        <rect x="52" y="560" width="300" height="84" rx="20" fill="rgba(10,15,23,.72)" stroke="rgba(255,255,255,.12)"/>
        <text x="78" y="595" font-size="18" fill="rgba(255,255,255,.62)">Coordonnées approx.</text>
        <text x="78" y="624" font-size="26" font-weight="700" fill="white">46.1928051, 6.1536240</text>
        <rect x="915" y="54" width="230" height="52" rx="26" fill="rgba(255,255,255,.08)" stroke="rgba(255,255,255,.18)"/>
        <text x="1030" y="87" text-anchor="middle" font-size="18" font-weight="700" fill="white">Vue type maps</text>
      </g>
    </svg>